<svg width="130" height="49" viewBox="0 0 130 49" fill="none" xmlns="http://www.w3.org/2000/svg">
<path d="M0 0.223243V48.1128L46.9586 0.222668H25.9257L13.2339 13.2952V0.222668L0 0.223243Z" fill="#EEBD00"/>
<path d="M19.4471 34.3924L28.7744 24.859L45.3309 41.0467V48.7773H34.3541L19.4471 34.3924Z" fill="#EEBD00"/>
<path d="M53.7559 7.5679V23.3657H56.8441V16.8412H57.5327L62.5111 23.3657H66.4614L60.1086 15.2164L66.1197 7.5679H62.1688L57.5321 13.4761H56.8447V7.5679H53.7559Z" fill="white"/>
<path d="M72.6987 11.4332C69.0304 11.3522 66.5596 14.182 66.5596 17.5723C66.5601 18.9345 67.0136 20.2579 67.8487 21.3342C68.6838 22.4104 69.8531 23.1784 71.1725 23.5172C72.4919 23.8561 73.8865 23.7465 75.1369 23.2059C76.3872 22.6652 77.4223 21.7241 78.0791 20.5307L77.6823 20.3803L75.3275 19.4883C75.2211 19.724 75.0861 19.9456 74.9254 20.1482C74.3511 20.8719 73.4632 21.2142 72.4667 21.2142C71.1526 21.2142 69.618 20.123 69.4365 18.5648H78.3123C78.3123 18.5544 78.3163 18.5441 78.3175 18.5338C78.3764 18.1896 78.406 17.8411 78.4059 17.4919C78.4031 14.5628 76.1264 11.5084 72.6987 11.4332ZM69.452 16.4041C69.6317 14.7644 71.1566 13.8454 72.4885 13.8822C74.0513 13.9253 75.324 14.9074 75.5624 16.4041H69.452Z" fill="white"/>
<path d="M77.7311 11.8301H81.1065L83.8777 19.5865L83.9707 19.5837L86.7373 11.8301H89.7876L84.0201 28.0035H80.8279L82.3235 22.9883L77.7311 11.8301Z" fill="white"/>
<path d="M89.8117 7.5679H93.2227L97.4097 20.1046H97.5222L101.68 7.5679H105.09L99.6134 23.3588H95.3162L89.8117 7.5679Z" fill="white"/>
<path d="M110.01 11.4728C108.799 11.4728 107.615 11.832 106.607 12.505C105.6 13.178 104.815 14.1346 104.352 15.2537C103.888 16.3729 103.767 17.6044 104.003 18.7925C104.239 19.9806 104.823 21.0719 105.679 21.9284C106.536 22.785 107.627 23.3683 108.815 23.6047C110.003 23.841 111.235 23.7197 112.354 23.2561C113.473 22.7926 114.43 22.0075 115.103 21.0003C115.776 19.9931 116.135 18.809 116.135 17.5976C116.135 16.7933 115.977 15.9968 115.669 15.2537C115.361 14.5105 114.91 13.8353 114.341 13.2666C113.772 12.6978 113.097 12.2467 112.354 11.9389C111.611 11.6311 110.814 11.4728 110.01 11.4728ZM110.006 20.9494C109.339 20.9494 108.688 20.7518 108.134 20.3816C107.58 20.0114 107.148 19.4853 106.893 18.8696C106.638 18.254 106.571 17.5766 106.701 16.9231C106.831 16.2695 107.152 15.6692 107.623 15.1981C108.094 14.7269 108.695 14.406 109.348 14.276C110.002 14.146 110.679 14.2127 111.295 14.4677C111.91 14.7227 112.437 15.1546 112.807 15.7086C113.177 16.2626 113.375 16.914 113.375 17.5804C113.375 18.023 113.288 18.4613 113.119 18.8704C112.95 19.2794 112.702 19.6511 112.389 19.9641C112.076 20.2772 111.704 20.5256 111.295 20.6951C110.886 20.8645 110.448 20.9517 110.006 20.9517V20.9494Z" fill="white"/>
<path d="M120.724 7.5679H117.8V23.3663H120.724V7.5679Z" fill="white"/>
<path d="M130 20.6152V23.2192C129.906 23.2732 129.809 23.323 129.709 23.3686C129.18 23.6096 128.599 23.7139 128.019 23.6719C127.439 23.6299 126.878 23.4429 126.389 23.1282C125.9 22.8134 125.498 22.3809 125.219 21.8702C124.941 21.3596 124.795 20.7873 124.795 20.2057V14.4341H122.893V11.8536H124.795V9.01352H127.719V11.8536H129.916V14.4341H127.719V19.8329C127.719 20.1216 127.828 20.3996 128.026 20.61C128.234 20.8334 128.61 20.9701 128.939 20.9701C129.268 20.9701 129.638 20.8334 129.846 20.61L130 20.6152Z" fill="white"/>
<path d="M102.864 31.9808V32.0078C103.123 31.927 103.39 31.8723 103.66 31.8447C103.391 31.8677 103.125 31.9132 102.864 31.9808Z" fill="white"/>
<path d="M83.9989 31.8918C80.3312 31.8108 77.8598 34.6406 77.8598 38.0309C77.8603 39.3931 78.3138 40.7165 79.1489 41.7927C79.984 42.8689 81.1533 43.6369 82.4727 43.9758C83.7921 44.3146 85.1867 44.2051 86.437 43.6644C87.6874 43.1238 88.7224 42.1827 89.3793 40.9893L88.9824 40.8388L86.6276 39.9469C86.5213 40.1826 86.3863 40.4042 86.2256 40.6068C85.6513 41.3305 84.7633 41.6722 83.7669 41.6722C82.4528 41.6722 80.9187 40.5809 80.7372 39.0233H89.6102C89.6102 39.013 89.6142 39.0027 89.6154 38.9923C89.6743 38.6482 89.7039 38.2996 89.7038 37.9505C89.7038 35.0213 87.4271 31.967 83.9989 31.8918ZM80.7527 36.8627C80.9319 35.2224 82.4574 34.304 83.7887 34.3407C85.3515 34.3838 86.6242 35.3659 86.8625 36.8627H80.7527Z" fill="white"/>
<path d="M111.772 32.3541H115.148L117.919 40.1105L118.012 40.1083L120.778 32.3541H123.829L118.061 48.5275H114.869L116.365 43.5124L111.772 32.3541Z" fill="white"/>
<path d="M76.5715 35.9575V43.7869H73.5275V36.7059C73.5275 36.1065 73.2894 35.5316 72.8656 35.1078C72.4417 34.684 71.8669 34.4459 71.2675 34.4459C70.6681 34.4459 70.0932 34.684 69.6694 35.1078C69.2456 35.5316 69.0074 36.1065 69.0074 36.7059V43.7869H66.0795V32.2852H68.8644V33.8399H68.9288V33.6676C69.6754 32.5879 71.0222 31.824 72.4322 31.824C73.529 31.824 74.5808 32.2597 75.3563 33.0352C76.1318 33.8107 76.5675 34.8625 76.5675 35.9592L76.5715 35.9575Z" fill="white"/>
<path d="M98.3953 32.0956V35.1776H96.7216C95.4673 35.2172 94.5041 36.4193 94.4616 37.6656V43.7858H91.5371V32.2852H94.3221V33.8399H94.3864V33.6676C95.133 32.5879 96.4799 32.0675 97.8899 32.0675C98.0587 32.0666 98.2275 32.076 98.3953 32.0956Z" fill="white"/>
<path d="M53.7559 27.8323H63.7195V30.5794H56.8447V34.3775H63.0332V37.2515H56.8447V41.0398H63.7195V43.7869H53.7559V27.8323Z" fill="white"/>
<path d="M107.662 32.4684V33.8399H107.597V33.6676C107.53 33.5704 107.458 33.4762 107.382 33.385C106.636 32.4891 105.461 31.8676 104.224 31.8263C104.185 31.8263 104.146 31.8263 104.109 31.8263H104.077H104.004H103.947L103.84 31.8315L103.766 31.8366L103.697 31.8429C103.685 31.8429 103.673 31.8429 103.662 31.8464C103.392 31.874 103.125 31.9287 102.866 32.0095V31.9825C101.633 32.3024 100.565 33.0864 99.8219 34.1581C99.0928 35.219 98.7058 36.4777 98.7128 37.765C98.713 38.3717 98.7945 38.9758 98.9552 39.5609C99.0471 39.8978 99.1658 40.2268 99.3102 40.5448C99.4861 40.9348 99.7045 41.3042 99.9614 41.6463C100.197 41.9588 100.464 42.246 100.759 42.5033C100.824 42.5607 100.89 42.6181 100.958 42.6681C101.087 42.7715 101.221 42.8672 101.36 42.9553L101.384 42.9702C101.427 42.9983 101.47 43.0276 101.514 43.0523C101.976 43.3342 102.481 43.5401 103.008 43.6623C103.266 43.7216 103.529 43.7601 103.794 43.7771C103.9 43.784 104.006 43.7875 104.113 43.7875C104.251 43.7868 104.388 43.7786 104.524 43.7628C105.369 43.6686 106.642 43.2844 107.338 42.2839C107.362 42.2494 107.386 42.2144 107.408 42.1787C107.431 42.1431 107.444 42.1213 107.461 42.0909V41.9186H107.525V43.3016C107.525 44.9396 106.134 46.1199 104.432 46.1199C103.365 46.1199 102.28 45.5777 101.726 44.7851L98.9265 45.4841C99.9029 47.2599 102.091 48.6498 104.444 48.6498C107.482 48.6498 109.991 46.6132 110.37 43.977L110.42 43.2826V32.4678L107.662 32.4684ZM107.382 38.8011C107.16 39.5086 106.751 40.1042 106.189 40.4833C106.084 40.5537 105.975 40.6163 105.861 40.6705C105.495 40.8425 105.094 40.9298 104.689 40.9261C104.436 40.9263 104.183 40.8946 103.937 40.8319C103.699 40.7718 103.469 40.6821 103.252 40.5649C103.237 40.5574 103.222 40.5488 103.206 40.5402C103.101 40.4812 103 40.416 102.903 40.3449C102.384 39.9679 101.997 39.4362 101.799 38.8261C101.601 38.216 101.601 37.5587 101.799 36.9487C101.998 36.3386 102.384 35.807 102.903 35.4302C103.423 35.0535 104.048 34.8508 104.689 34.8513C106.049 34.8513 106.995 35.745 107.382 36.9764C107.393 37.0108 107.404 37.0453 107.413 37.0803C107.552 37.5872 107.558 38.1214 107.43 38.6311C107.417 38.6902 107.401 38.7459 107.384 38.8011H107.382Z" fill="white"/>
<path d="M110.37 43.9779C110.403 43.7478 110.42 43.5157 110.42 43.2832L110.37 43.9779Z" fill="white"/>
</svg>
