<svg width="33" height="32" viewBox="0 0 33 32" fill="none" xmlns="http://www.w3.org/2000/svg">
<path d="M16.25 24H5.58334C4.87609 24 4.19782 23.719 3.69772 23.219C3.19762 22.7189 2.91667 22.0406 2.91667 21.3333V10.6667C2.91667 9.95942 3.19762 9.28115 3.69772 8.78105C4.19782 8.28095 4.87609 8 5.58334 8H26.9167C27.6239 8 28.3022 8.28095 28.8023 8.78105C29.3024 9.28115 29.5833 9.95942 29.5833 10.6667V17.3333M24.25 16H24.2633M25.5833 29.3333V21.3333M25.5833 21.3333L29.5833 25.3333M25.5833 21.3333L21.5833 25.3333M8.25 16H8.26334M18.9167 16C18.9167 17.4728 17.7228 18.6667 16.25 18.6667C14.7772 18.6667 13.5833 17.4728 13.5833 16C13.5833 14.5272 14.7772 13.3333 16.25 13.3333C17.7228 13.3333 18.9167 14.5272 18.9167 16Z" stroke="#EEBD00" stroke-width="2" stroke-linecap="round" stroke-linejoin="round"/>
</svg>
