<svg width="33" height="32" viewBox="0 0 33 32" fill="none" xmlns="http://www.w3.org/2000/svg">
<path d="M14.9167 22.6667L17.5834 25.3333C17.846 25.596 18.1578 25.8043 18.501 25.9465C18.8441 26.0886 19.2119 26.1618 19.5834 26.1618C19.9548 26.1618 20.3226 26.0886 20.6657 25.9465C21.0089 25.8043 21.3207 25.596 21.5834 25.3333C21.846 25.0707 22.0543 24.7589 22.1965 24.4157C22.3386 24.0726 22.4118 23.7048 22.4118 23.3333C22.4118 22.9619 22.3386 22.5941 22.1965 22.2509C22.0543 21.9078 21.846 21.596 21.5834 21.3333M18.9167 18.6667L22.25 22C22.7805 22.5304 23.4999 22.8284 24.25 22.8284C25.0002 22.8284 25.7196 22.5304 26.25 22C26.7805 21.4696 27.0784 20.7501 27.0784 20C27.0784 19.2499 26.7805 18.5304 26.25 18L21.0767 12.8267C20.3267 12.0776 19.31 11.6569 18.25 11.6569C17.19 11.6569 16.1734 12.0776 15.4234 12.8267L14.25 14C13.7196 14.5304 13.0002 14.8284 12.25 14.8284C11.4999 14.8284 10.7805 14.5304 10.25 14C9.71959 13.4696 9.42159 12.7501 9.42159 12C9.42159 11.2499 9.71959 10.5304 10.25 10L13.9967 6.25333C15.213 5.04019 16.7992 4.2674 18.5042 4.0573C20.2092 3.84719 21.9356 4.21177 23.41 5.09333L24.0367 5.46667C24.6044 5.80932 25.2794 5.92816 25.93 5.8L28.25 5.33333M28.25 4L29.5834 18.6667H26.9167M4.25002 4L2.91669 18.6667L11.5834 27.3333C12.1138 27.8638 12.8332 28.1618 13.5834 28.1618C14.3335 28.1618 15.0529 27.8638 15.5834 27.3333C16.1138 26.8029 16.4118 26.0835 16.4118 25.3333C16.4118 24.5832 16.1138 23.8638 15.5834 23.3333M4.25002 5.33333H14.9167" stroke="#EEBD00" stroke-width="2" stroke-linecap="round" stroke-linejoin="round"/>
</svg>
