<svg width="33" height="32" viewBox="0 0 33 32" fill="none" xmlns="http://www.w3.org/2000/svg">
<path d="M3.41663 29.3333L7.41663 25.3333M10.75 18L14.0833 14.6667M14.75 22L18.0833 18.6667M24.75 4L19.4166 9.33333H27.4166L22.0833 14.6667M9.14996 27.0667C9.44725 27.365 9.80051 27.6017 10.1895 27.7632C10.5784 27.9247 10.9955 28.0079 11.4166 28.0079C11.8378 28.0079 12.2548 27.9247 12.6438 27.7632C13.0327 27.6017 13.386 27.365 13.6833 27.0667L16.75 24L8.74996 16L5.68329 19.0667C5.38497 19.364 5.14826 19.7172 4.98675 20.1062C4.82524 20.4951 4.7421 20.9122 4.7421 21.3333C4.7421 21.7545 4.82524 22.1715 4.98675 22.5605C5.14826 22.9495 5.38497 23.3027 5.68329 23.6L9.14996 27.0667Z" stroke="#EEBD00" stroke-width="2" stroke-linecap="round" stroke-linejoin="round"/>
</svg>
